Coordinates
version=1
nRows=32
nColumns=38
inDegrees=no

Units are S.I. units (second, meters, Newtons, ...)
If the header above contains a line with 'inDegrees', this indicates whether rotational values are in degrees (yes) or radians (no).

endheader
time	pelvis_tilt	pelvis_list	pelvis_rotation	pelvis_tx	pelvis_ty	pelvis_tz	hip_flexion_r	hip_adduction_r	hip_rotation_r	knee_angle_r	ankle_angle_r	subtalar_angle_r	mtp_angle_r	hip_flexion_l	hip_adduction_l	hip_rotation_l	knee_angle_l	ankle_angle_l	subtalar_angle_l	mtp_angle_l	lumbar_extension	lumbar_bending	lumbar_rotation	arm_flex_r	arm_add_r	arm_rot_r	elbow_flex_r	pro_sup_r	wrist_flex_r	wrist_dev_r	arm_flex_l	arm_add_l	arm_rot_l	elbow_flex_l	pro_sup_l	wrist_flex_l	wrist_dev_l
28.33	1.42463	1.46706	0.0673294	0.674543	1.87856	0.974706	0.0728194	0.0597396	-0.239935	0.303654	0.129691	0	0	-0.090772	-0.074165	-0.183815	0	0.0465518	0	0	-0.122937	0.154567	0.107993	-0.00494626	-0.382815	0.0511149	1.35645	1.49035	0	0	-0.0221035	-0.198272	0.0759091	1.37446	1.38586	0	0
28.34	1.43743	1.46713	0.054023	0.674665	1.87845	0.974783	0.0718694	0.0598659	-0.239192	0.304954	0.132222	0	0	-0.0919458	-0.0743027	-0.18458	0	0.0467051	0	0	-0.125496	0.154133	0.109129	0.00559811	-0.380801	0.0513796	1.34866	1.49054	0	0	-0.0111935	-0.197391	0.0770173	1.36676	1.3846	0	0
28.35	1.45154	1.4673	0.0393981	0.674778	1.87834	0.974877	0.0703513	0.0600498	-0.238051	0.305167	0.132892	0	0	-0.0932697	-0.074288	-0.185295	0	0.0467177	0	0	-0.128087	0.153569	0.110424	0.0166269	-0.378641	0.0513441	1.34032	1.49118	0	0	0.000214756	-0.196483	0.0781776	1.35824	1.38277	0	0
28.36	1.80991	1.46484	-0.255227	0.665292	1.87575	0.977697	0.02607	0.0463586	-0.312694	0.295905	0.130803	0	0	-0.11453	-0.0712257	-0.114753	0	0.0424427	0	0	-0.17129	0.165863	0.0526479	0.0402461	-0.388249	0.0509768	1.34335	1.4981	0	0	0.0273813	-0.188178	0.0815227	1.3491	1.37542	0	0
28.37	1.49141	1.46748	-0.00142507	0.675058	1.87823	0.975178	0.0647629	0.060821	-0.236736	0.302483	0.131	0	0	-0.0979242	-0.0743511	-0.187385	0	0.0463863	0	0	-0.134281	0.152508	0.112794	0.0399663	-0.37416	0.0520703	1.32285	1.50031	0	0	0.0229948	-0.195001	0.0798182	1.34147	1.37367	0	0
28.38	1.54371	1.46651	-0.0561271	0.675318	1.87804	0.975605	0.0574303	0.0630559	-0.2298	0.298219	0.12819	0	0	-0.103894	-0.0751508	-0.193409	0	0.0470167	0	0	-0.141537	0.153053	0.114531	0.0546338	-0.372863	0.0559275	1.31393	1.50057	0	0	0.0341846	-0.194237	0.0787001	1.33401	1.37179	0	0
28.39	1.83273	1.45141	-0.396443	0.681677	1.87295	0.979473	0.0285306	0.0823675	-0.155386	0.300718	0.112206	0	0	-0.146694	-0.0826028	-0.252599	0	0.0435792	0	0	-0.203409	0.147265	0.173415	0.0822364	-0.372651	0.0562832	1.31271	1.49683	0	0	0.0640957	-0.196035	0.0818886	1.33311	1.3714	0	0
28.4	1.55886	1.46659	-0.0712535	0.675474	1.87785	0.975701	0.0557629	0.0630258	-0.230121	0.297833	0.128055	0	0	-0.105307	-0.0752671	-0.193491	0	0.0463044	0	0	-0.146008	0.151688	0.121281	0.0716195	-0.369684	0.0499959	1.30158	1.49707	0	0	0.0612453	-0.192195	0.0871036	1.31574	1.36996	0	0
28.41	1.50955	1.46789	-0.0202928	0.675362	1.87789	0.975326	0.0630325	0.0606582	-0.237046	0.302252	0.130792	0	0	-0.0995824	-0.074206	-0.18839	0	0.0450343	0	0	-0.144215	0.150817	0.108813	0.091955	-0.365609	0.0621903	1.29	1.498	0	0	0.0605331	-0.192051	0.0727918	1.31941	1.36982	0	0
28.42	1.52044	1.46849	-0.0307323	0.675416	1.87778	0.975327	0.0627181	0.059679	-0.239049	0.304199	0.132073	0	0	-0.100619	-0.073643	-0.187619	0	0.0453284	0	0	-0.141955	0.149322	0.120327	0.0930997	-0.365303	0.0504177	1.28199	1.49757	0	0	0.0839845	-0.189806	0.0899853	1.29758	1.36922	0	0
28.43	1.52805	1.46849	-0.038456	0.675461	1.87767	0.975373	0.0621166	0.0597083	-0.238902	0.304486	0.13218	0	0	-0.101414	-0.0736582	-0.187666	0	0.0452454	0	0	-0.143168	0.149123	0.122096	0.103981	-0.363226	0.0486037	1.27236	1.5038	0	0	0.097863	-0.18892	0.0946948	1.28544	1.36271	0	0
28.44	1.55347	1.4681	-0.0634369	0.675477	1.87752	0.975553	0.0586311	0.0604885	-0.237775	0.302493	0.131092	0	0	-0.104106	-0.0740321	-0.188104	0	0.0449918	0	0	-0.146871	0.149252	0.12181	0.117096	-0.361646	0.0508417	1.2629	1.50311	0	0	0.11002	-0.187618	0.0947957	1.27622	1.36106	0	0
28.45	1.61239	1.46669	-0.124314	0.675653	1.87721	0.976048	0.0511486	0.0625145	-0.230962	0.299321	0.128201	0	0	-0.110807	-0.0748001	-0.193993	0	0.0455348	0	0	-0.155673	0.14973	0.124463	0.131443	-0.361153	0.0538535	1.25445	1.50167	0	0	0.123229	-0.186109	0.0949818	1.26751	1.35978	0	0
28.46	1.89314	1.44892	-0.456329	0.681927	1.87197	0.979961	0.0221372	0.0819432	-0.156326	0.302511	0.111996	0	0	-0.154227	-0.0822334	-0.253427	0	0.0421032	0	0	-0.217312	0.144204	0.179476	0.164611	-0.361483	0.0608998	1.24853	1.50015	0	0	0.151796	-0.187647	0.0947835	1.26599	1.35867	0	0
28.47	1.6295	1.46694	-0.142599	0.675777	1.87672	0.97612	0.0507505	0.0618843	-0.230134	0.301278	0.128528	0	0	-0.112563	-0.0742057	-0.195394	0	0.0451898	0	0	-0.15951	0.148838	0.124349	0.15925	-0.358653	0.0615884	1.23329	1.50049	0	0	0.146317	-0.183839	0.0943933	1.24881	1.35832	0	0
28.48	1.59636	1.46866	-0.107415	0.675687	1.87664	0.975758	0.05646	0.0592965	-0.237503	0.305763	0.131653	0	0	-0.108545	-0.0730805	-0.19005	0	0.0442347	0	0	-0.155107	0.147545	0.12076	0.172223	-0.356229	0.0660794	1.22007	1.50043	0	0	0.156693	-0.183075	0.0936447	1.23805	1.35826	0	0
28.49	1.60297	1.46902	-0.113586	0.675712	1.87646	0.975739	0.0567012	0.058534	-0.239357	0.307581	0.132764	0	0	-0.109111	-0.0727826	-0.189299	0	0.0439696	0	0	-0.156293	0.146867	0.119862	0.1858	-0.354789	0.0707159	1.20785	1.49993	0	0	0.16863	-0.181902	0.093385	1.22706	1.35886	0	0
28.5	1.55067	1.47011	-0.0639365	0.675902	1.87626	0.975241	0.0653529	0.0572613	-0.238256	0.313517	0.135332	0	0	-0.102701	-0.0720857	-0.192671	0	0.0454958	0	0	-0.150231	0.146033	0.121406	0.199237	-0.360217	0.0979836	1.20134	1.34469	0	0	0.179993	-0.184851	0.108555	1.21833	1.24629	0	0
28.51	1.65206	1.46825	-0.161949	0.675743	1.87598	0.975944	0.0523012	0.0584624	-0.2414	0.30902	0.133788	0	0	-0.113991	-0.0731019	-0.189175	0	0.0440959	0	0	-0.163602	0.146271	0.117819	0.215555	-0.352969	0.0841143	1.18277	1.49335	0	0	0.192803	-0.181284	0.0949933	1.20596	1.35531	0	0
28.52	1.66593	1.468	-0.175996	0.675763	1.87575	0.975993	0.0512412	0.0584913	-0.240952	0.309469	0.133942	0	0	-0.115194	-0.0731537	-0.189339	0	0.0443524	0	0	-0.165971	0.1464	0.118146	0.228945	-0.352185	0.0895915	1.17174	1.4866	0	0	0.205154	-0.178207	0.0925623	1.19374	1.35104	0	0
28.53	1.69243	1.46759	-0.202503	0.675787	1.8755	0.976113	0.04859	0.0584678	-0.240745	0.309534	0.134117	0	0	-0.11796	-0.0731074	-0.189295	0	0.0444911	0	0	-0.169986	0.146089	0.118116	0.242773	-0.350776	0.0941703	1.15991	1.48829	0	0	0.217322	-0.176758	0.0917719	1.18311	1.35074	0	0
28.54	1.71235	1.46973	-0.222533	0.676122	1.87533	0.975918	0.0462615	0.0550878	-0.245856	0.30855	0.13665	0	0	-0.119634	-0.0707137	-0.189368	0	0.0449685	0	0	-0.172142	0.142352	0.117884	0.255214	-0.348084	0.0980523	1.14863	1.48829	0	0	0.228794	-0.177081	0.0915769	1.17463	1.34877	0	0
28.55	1.74232	1.46946	-0.252329	0.676175	1.87507	0.976058	0.0434589	0.0545987	-0.246676	0.309032	0.137214	0	0	-0.122695	-0.0702578	-0.189348	0	0.0450587	0	0	-0.176429	0.141572	0.11763	0.268813	-0.34644	0.102689	1.13633	1.48747	0	0	0.240618	-0.175953	0.0902844	1.1648	1.34615	0	0
28.56	1.77477	1.46866	-0.284708	0.676216	1.87478	0.976235	0.0401127	0.0545401	-0.246901	0.309068	0.13733	0	0	-0.126116	-0.0702125	-0.189388	0	0.0452984	0	0	-0.181123	0.141278	0.116899	0.283759	-0.345049	0.109231	1.12248	1.48573	0	0	0.252106	-0.174667	0.0878703	1.15486	1.34333	0	0
28.57	1.80596	1.46792	-0.315094	0.676283	1.87454	0.976445	0.0365074	0.054521	-0.247764	0.308339	0.137098	0	0	-0.129216	-0.0702021	-0.188682	0	0.0450424	0	0	-0.186719	0.140339	0.1187	0.295008	-0.34492	0.112107	1.11229	1.47769	0	0	0.265579	-0.172	0.0866704	1.14426	1.3465	0	0
28.58	1.79303	1.4684	-0.302731	0.67637	1.87435	0.976415	0.0385487	0.0545464	-0.247014	0.308915	0.136833	0	0	-0.127163	-0.0701812	-0.189065	0	0.0446955	0	0	-0.192987	0.141723	0.103121	0.321377	-0.337272	0.132392	1.09856	1.48388	0	0	0.259289	-0.17581	0.0607523	1.15906	1.34244	0	0
28.59	2.17842	1.45023	-0.619896	0.666598	1.87091	0.979809	-0.0161958	0.0422999	-0.324049	0.296336	0.133363	0	0	-0.156548	-0.0685786	-0.113274	0	0.0393915	0	0	-0.241261	0.15487	0.0584711	0.336643	-0.355186	0.126007	1.09865	1.46896	0	0	0.308065	-0.161166	0.0855493	1.12087	1.34305	0	0
28.6	1.86807	1.46511	-0.377467	0.676367	1.87374	0.976748	0.0297814	0.0551049	-0.248218	0.308474	0.137363	0	0	-0.135823	-0.0708348	-0.189531	0	0.0451031	0	0	-0.198093	0.140156	0.120791	0.332491	-0.342464	0.125318	1.07515	1.47504	0	0	0.302284	-0.1653	0.0836539	1.10867	1.34078	0	0
28.61	1.88371	1.46423	-0.393607	0.676378	1.8735	0.976806	0.0283414	0.0551729	-0.248277	0.30913	0.137661	0	0	-0.137847	-0.0708916	-0.190018	0	0.0456118	0	0	-0.201237	0.140341	0.120105	0.346147	-0.341305	0.133062	1.06167	1.47367	0	0	0.312622	-0.163246	0.0803797	1.09755	1.34038	0	0
28.62	1.90113	1.46304	-0.411291	0.676396	1.87327	0.976893	0.026301	0.0555437	-0.248092	0.309166	0.137586	0	0	-0.140137	-0.0712056	-0.190522	0	0.0458493	0	0	-0.204875	0.140617	0.119218	0.359674	-0.340125	0.141055	1.04829	1.4713	0	0	0.322737	-0.161143	0.0769804	1.08674	1.34083	0	0
28.63	1.91989	1.46168	-0.43016	0.676399	1.87301	0.976978	0.023938	0.0560163	-0.247943	0.309134	0.137536	0	0	-0.14263	-0.0716312	-0.190935	0	0.0459186	0	0	-0.208894	0.14094	0.118363	0.3731	-0.339097	0.149172	1.03528	1.46794	0	0	0.332719	-0.15901	0.0738265	1.07611	1.34201	0	0
28.64	1.93988	1.46028	-0.450217	0.67638	1.87272	0.977065	0.0214548	0.0563484	-0.248095	0.309171	0.13758	0	0	-0.145261	-0.071967	-0.191192	0	0.0459249	0	0	-0.21332	0.141209	0.11761	0.386398	-0.338219	0.157508	1.02254	1.46363	0	0	0.342649	-0.156965	0.0710291	1.06564	1.34352	0	0
